<svg xmlns="http://www.w3.org/2000/svg" width="12.487" height="22" viewBox="0 0 12.487 22">
  <path id="facebook_2_" data-name="facebook (2)" d="M9.388,5.445c.03-.034.171-.145.722-.145h1.809a1.068,1.068,0,0,0,1.067-1.067V1.071A1.069,1.069,0,0,0,11.921,0L9.234,0A5.529,5.529,0,0,0,5.157,1.582a5.806,5.806,0,0,0-1.535,4.16V7.447H1.567A1.068,1.068,0,0,0,.5,8.514v3.4a1.068,1.068,0,0,0,1.067,1.067H3.622v7.947A1.068,1.068,0,0,0,4.689,22H8.213A1.068,1.068,0,0,0,9.28,20.933V12.986h2.512a1.068,1.068,0,0,0,1.067-1.067V8.514a1.071,1.071,0,0,0-.549-.933,1.084,1.084,0,0,0-.528-.134H9.28V6.1c0-.439.059-.6.109-.654Zm0,0" transform="translate(-0.5 0)" fill="#fff"/>
</svg>
