<svg xmlns="http://www.w3.org/2000/svg" width="139.498" height="139.498" viewBox="0 0 139.498 139.498">
  <path id="Path_202" data-name="Path 202" d="M1,134.03a6.387,6.387,0,0,0,6.4,6.4H89.771a6.387,6.387,0,0,0,6.4-6.4v-6.214H1ZM48.556,51.663C24.778,51.663,1,64.408,1,89.771H96.112C96.112,64.408,72.334,51.663,48.556,51.663ZM17.613,77.09c7.038-9.828,22-12.745,30.943-12.745S72.461,67.261,79.5,77.09ZM1,102.453H96.112v12.682H1Zm107.794-76.09V1H96.112V26.363h-31.7l1.458,12.682h60.618l-8.877,88.771h-8.814V140.5H119.7a10.532,10.532,0,0,0,10.335-9.321L140.5,26.363Z" transform="translate(-1 -1)" fill="#fff"/>
</svg>
